<?xml version="1.0" encoding="UTF-8" standalone="no"?>
<!DOCTYPE svg PUBLIC "-//W3C//DTD SVG 1.1//EN"
 "http://www.w3.org/Graphics/SVG/1.1/DTD/svg11.dtd">
<!-- Generated by graphviz version 2.36.0 (20140111.2315)
 -->
<!-- Title: G Pages: 1 -->
<svg width="994pt" height="2616pt"
 viewBox="0.00 0.00 994.00 2616.00" xmlns="http://www.w3.org/2000/svg" xmlns:xlink="http://www.w3.org/1999/xlink">
<g id="graph0" class="graph" transform="scale(1 1) rotate(0) translate(4 2612)">
<title>G</title>
<polygon fill="white" stroke="none" points="-4,4 -4,-2612 990,-2612 990,4 -4,4"/>
<g id="clust1" class="cluster"><title>cluster_Global</title>
<path fill="none" stroke="gray" d="M25,-422C25,-422 966,-422 966,-422 972,-422 978,-428 978,-434 978,-434 978,-2588 978,-2588 978,-2594 972,-2600 966,-2600 966,-2600 25,-2600 25,-2600 19,-2600 13,-2594 13,-2588 13,-2588 13,-434 13,-434 13,-428 19,-422 25,-422"/>
<text text-anchor="middle" x="495.5" y="-2587.2" font-family="Times,serif" font-size="11.00" fill="gray">Global</text>
</g>
<!-- \\WP_Sports_Manager_Loader -->
<g id="node1" class="node"><title>\\WP_Sports_Manager_Loader</title>
<polygon fill="none" stroke="black" points="912.5,-2572 733.5,-2572 733.5,-2536 912.5,-2536 912.5,-2572"/>
<text text-anchor="middle" x="823" y="-2551.2" font-family="Courier,monospace" font-size="11.00">WP_Sports_Manager_Loader</text>
</g>
<!-- \\WP_UnitTest_Factory_For_Post -->
<g id="node2" class="node"><title>\\WP_UnitTest_Factory_For_Post</title>
<polygon fill="none" stroke="black" points="568,-2302 362,-2302 362,-2266 568,-2266 568,-2302"/>
<text text-anchor="middle" x="465" y="-2281.2" font-family="Courier,monospace" font-size="11.00">WP_UnitTest_Factory_For_Post</text>
</g>
<!-- \\WP_UnitTest_Factory_For_Thing -->
<g id="node25" class="node"><title>\\WP_UnitTest_Factory_For_Thing</title>
<polygon fill="none" stroke="black" points="233,-2383 21,-2383 21,-2347 233,-2347 233,-2383"/>
<text text-anchor="start" x="93" y="-2368.2" font-family="Courier,monospace" font-size="11.00">«abstract»</text>
<text text-anchor="start" x="29" y="-2356.2" font-family="Courier,monospace" font-size="11.00">WP_UnitTest_Factory_For_Thing</text>
</g>
<!-- \\WP_UnitTest_Factory_For_Post&#45;&gt;\\WP_UnitTest_Factory_For_Thing -->
<g id="edge1" class="edge"><title>\\WP_UnitTest_Factory_For_Post&#45;&gt;\\WP_UnitTest_Factory_For_Thing</title>
<path fill="none" stroke="black" d="M366.924,-2302.07C353.152,-2304.9 339.193,-2307.91 326,-2311 283.801,-2320.87 237.005,-2333.55 199.506,-2344.14"/>
<polygon fill="none" stroke="black" points="198.35,-2340.83 189.685,-2346.93 200.261,-2347.57 198.35,-2340.83"/>
</g>
<!-- \\WP_Sports_Manager_Admin -->
<g id="node3" class="node"><title>\\WP_Sports_Manager_Admin</title>
<polygon fill="none" stroke="black" points="909,-2518 737,-2518 737,-2482 909,-2482 909,-2518"/>
<text text-anchor="middle" x="823" y="-2497.2" font-family="Courier,monospace" font-size="11.00">WP_Sports_Manager_Admin</text>
</g>
<!-- \\WP_UnitTest_Factory_For_Attachment -->
<g id="node4" class="node"><title>\\WP_UnitTest_Factory_For_Attachment</title>
<polygon fill="none" stroke="black" points="946,-2356 700,-2356 700,-2320 946,-2320 946,-2356"/>
<text text-anchor="middle" x="823" y="-2335.2" font-family="Courier,monospace" font-size="11.00">WP_UnitTest_Factory_For_Attachment</text>
</g>
<!-- \\WP_UnitTest_Factory_For_Attachment&#45;&gt;\\WP_UnitTest_Factory_For_Post -->
<g id="edge2" class="edge"><title>\\WP_UnitTest_Factory_For_Attachment&#45;&gt;\\WP_UnitTest_Factory_For_Post</title>
<path fill="none" stroke="black" d="M702.962,-2319.94C662.713,-2313.84 617.929,-2307.05 578.225,-2301.02"/>
<polygon fill="none" stroke="black" points="578.658,-2297.55 568.246,-2299.51 577.608,-2304.47 578.658,-2297.55"/>
</g>
<!-- \\WP_Tests_Exception -->
<g id="node5" class="node"><title>\\WP_Tests_Exception</title>
<polygon fill="none" stroke="black" points="892,-1492 754,-1492 754,-1456 892,-1456 892,-1492"/>
<text text-anchor="middle" x="823" y="-1471.2" font-family="Courier,monospace" font-size="11.00">WP_Tests_Exception</text>
</g>
<!-- \\PHPUnit_Framework_Exception -->
<g id="node52" class="node"><title>\\PHPUnit_Framework_Exception</title>
<ellipse fill="none" stroke="black" cx="465" cy="-396" rx="129.977" ry="18"/>
<text text-anchor="middle" x="465" y="-392.3" font-family="Times,serif" font-size="14.00" fill="gray">\PHPUnit_Framework_Exception</text>
</g>
<!-- \\WP_Tests_Exception&#45;&gt;\\PHPUnit_Framework_Exception -->
<g id="edge3" class="edge"><title>\\WP_Tests_Exception&#45;&gt;\\PHPUnit_Framework_Exception</title>
<path fill="none" stroke="black" d="M753.636,-1478.42C725.578,-1476.39 695.229,-1468.53 676,-1447 523.325,-1276.02 758.781,-587.078 604,-418 600.78,-414.483 597.241,-411.376 593.451,-408.637"/>
<polygon fill="none" stroke="black" points="595.113,-405.548 584.778,-403.213 591.401,-411.483 595.113,-405.548"/>
</g>
<!-- \\WPDieException -->
<g id="node6" class="node"><title>\\WPDieException</title>
<polygon fill="none" stroke="black" points="520.5,-2086 409.5,-2086 409.5,-2050 520.5,-2050 520.5,-2086"/>
<text text-anchor="middle" x="465" y="-2065.2" font-family="Courier,monospace" font-size="11.00">WPDieException</text>
</g>
<!-- \\Exception -->
<g id="node53" class="node"><title>\\Exception</title>
<ellipse fill="none" stroke="black" cx="127" cy="-396" rx="48.9926" ry="18"/>
<text text-anchor="middle" x="127" y="-392.3" font-family="Times,serif" font-size="14.00" fill="gray">\Exception</text>
</g>
<!-- \\WPDieException&#45;&gt;\\Exception -->
<g id="edge4" class="edge"><title>\\WPDieException&#45;&gt;\\Exception</title>
<path fill="none" stroke="black" d="M444.85,-2049.82C413.291,-2018.46 351.334,-1950.63 326,-1879 271.804,-1725.77 361.608,-539.806 254,-418 236.879,-398.62 209.26,-392.319 184.238,-391.209"/>
<polygon fill="none" stroke="black" points="184.14,-387.706 174.078,-391.025 184.013,-394.705 184.14,-387.706"/>
</g>
<!-- \\WPAjaxDieStopException -->
<g id="node7" class="node"><title>\\WPAjaxDieStopException</title>
<polygon fill="none" stroke="black" points="905.5,-2302 740.5,-2302 740.5,-2266 905.5,-2266 905.5,-2302"/>
<text text-anchor="middle" x="823" y="-2281.2" font-family="Courier,monospace" font-size="11.00">WPAjaxDieStopException</text>
</g>
<!-- \\WPAjaxDieStopException&#45;&gt;\\WPDieException -->
<g id="edge5" class="edge"><title>\\WPAjaxDieStopException&#45;&gt;\\WPDieException</title>
<path fill="none" stroke="black" d="M740.287,-2276.99C718.619,-2272.99 695.769,-2266.74 676,-2257 633.697,-2236.15 536.458,-2139.99 490.682,-2093.41"/>
<polygon fill="none" stroke="black" points="493.032,-2090.81 483.534,-2086.12 488.032,-2095.71 493.032,-2090.81"/>
</g>
<!-- \\WPAjaxDieContinueException -->
<g id="node8" class="node"><title>\\WPAjaxDieContinueException</title>
<polygon fill="none" stroke="black" points="919,-2086 727,-2086 727,-2050 919,-2050 919,-2086"/>
<text text-anchor="middle" x="823" y="-2065.2" font-family="Courier,monospace" font-size="11.00">WPAjaxDieContinueException</text>
</g>
<!-- \\WPAjaxDieContinueException&#45;&gt;\\WPDieException -->
<g id="edge6" class="edge"><title>\\WPAjaxDieContinueException&#45;&gt;\\WPDieException</title>
<path fill="none" stroke="black" d="M726.599,-2068C664.682,-2068 585.632,-2068 530.915,-2068"/>
<polygon fill="none" stroke="black" points="530.65,-2064.5 520.65,-2068 530.65,-2071.5 530.65,-2064.5"/>
</g>
<!-- \\WP_Sports_Manager_Admin_Taxonomies -->
<g id="node9" class="node"><title>\\WP_Sports_Manager_Admin_Taxonomies</title>
<polygon fill="none" stroke="black" points="946,-2248 700,-2248 700,-2212 946,-2212 946,-2248"/>
<text text-anchor="middle" x="823" y="-2227.2" font-family="Courier,monospace" font-size="11.00">WP_Sports_Manager_Admin_Taxonomies</text>
</g>
<!-- \\WP_Sports_Manager_Settings_Loader -->
<g id="node10" class="node"><title>\\WP_Sports_Manager_Settings_Loader</title>
<polygon fill="none" stroke="black" points="942.5,-2194 703.5,-2194 703.5,-2158 942.5,-2158 942.5,-2194"/>
<text text-anchor="middle" x="823" y="-2173.2" font-family="Courier,monospace" font-size="11.00">WP_Sports_Manager_Settings_Loader</text>
</g>
<!-- \\WP_UnitTest_Generator_Sequence -->
<g id="node11" class="node"><title>\\WP_UnitTest_Generator_Sequence</title>
<polygon fill="none" stroke="black" points="932.5,-2140 713.5,-2140 713.5,-2104 932.5,-2104 932.5,-2140"/>
<text text-anchor="middle" x="823" y="-2119.2" font-family="Courier,monospace" font-size="11.00">WP_UnitTest_Generator_Sequence</text>
</g>
<!-- \\WP_Filesystem_MockFS -->
<g id="node12" class="node"><title>\\WP_Filesystem_MockFS</title>
<polygon fill="none" stroke="black" points="899,-1060 747,-1060 747,-1024 899,-1024 899,-1060"/>
<text text-anchor="middle" x="823" y="-1039.2" font-family="Courier,monospace" font-size="11.00">WP_Filesystem_MockFS</text>
</g>
<!-- \\WP_Filesystem_Base -->
<g id="node54" class="node"><title>\\WP_Filesystem_Base</title>
<ellipse fill="none" stroke="black" cx="465" cy="-342" rx="90.9839" ry="18"/>
<text text-anchor="middle" x="465" y="-338.3" font-family="Times,serif" font-size="14.00" fill="gray">\WP_Filesystem_Base</text>
</g>
<!-- \\WP_Filesystem_MockFS&#45;&gt;\\WP_Filesystem_Base -->
<g id="edge7" class="edge"><title>\\WP_Filesystem_MockFS&#45;&gt;\\WP_Filesystem_Base</title>
<path fill="none" stroke="black" d="M746.888,-1045.38C720.991,-1042.52 694,-1034.34 676,-1015 479.195,-803.518 799.708,-581.498 604,-369 593.689,-357.805 580.216,-350.461 565.733,-345.757"/>
<polygon fill="none" stroke="black" points="566.667,-342.384 556.092,-343.033 564.763,-349.12 566.667,-342.384"/>
</g>
<!-- \\MockFS_Node -->
<g id="node13" class="node"><title>\\MockFS_Node</title>
<polygon fill="none" stroke="black" points="510.5,-2464 419.5,-2464 419.5,-2428 510.5,-2428 510.5,-2464"/>
<text text-anchor="middle" x="465" y="-2443.2" font-family="Courier,monospace" font-size="11.00">MockFS_Node</text>
</g>
<!-- \\MockFS_Directory_Node -->
<g id="node14" class="node"><title>\\MockFS_Directory_Node</title>
<polygon fill="none" stroke="black" points="902,-2464 744,-2464 744,-2428 902,-2428 902,-2464"/>
<text text-anchor="middle" x="823" y="-2443.2" font-family="Courier,monospace" font-size="11.00">MockFS_Directory_Node</text>
</g>
<!-- \\MockFS_Directory_Node&#45;&gt;\\MockFS_Node -->
<g id="edge8" class="edge"><title>\\MockFS_Directory_Node&#45;&gt;\\MockFS_Node</title>
<path fill="none" stroke="black" d="M743.874,-2446C676.392,-2446 580.593,-2446 520.929,-2446"/>
<polygon fill="none" stroke="black" points="520.587,-2442.5 510.587,-2446 520.587,-2449.5 520.587,-2442.5"/>
</g>
<!-- \\MockFS_File_Node -->
<g id="node15" class="node"><title>\\MockFS_File_Node</title>
<polygon fill="none" stroke="black" points="885.5,-2410 760.5,-2410 760.5,-2374 885.5,-2374 885.5,-2410"/>
<text text-anchor="middle" x="823" y="-2389.2" font-family="Courier,monospace" font-size="11.00">MockFS_File_Node</text>
</g>
<!-- \\MockFS_File_Node&#45;&gt;\\MockFS_Node -->
<g id="edge9" class="edge"><title>\\MockFS_File_Node&#45;&gt;\\MockFS_Node</title>
<path fill="none" stroke="black" d="M760.396,-2401.34C692.769,-2411.6 585.226,-2427.92 520.544,-2437.73"/>
<polygon fill="none" stroke="black" points="519.905,-2434.28 510.543,-2439.24 520.955,-2441.2 519.905,-2434.28"/>
</g>
<!-- \\MockPHPMailer -->
<g id="node16" class="node"><title>\\MockPHPMailer</title>
<polygon fill="none" stroke="black" points="875,-1006 771,-1006 771,-970 875,-970 875,-1006"/>
<text text-anchor="middle" x="823" y="-985.2" font-family="Courier,monospace" font-size="11.00">MockPHPMailer</text>
</g>
<!-- \\PHPMailer -->
<g id="node55" class="node"><title>\\PHPMailer</title>
<ellipse fill="none" stroke="black" cx="465" cy="-288" rx="53.0913" ry="18"/>
<text text-anchor="middle" x="465" y="-284.3" font-family="Times,serif" font-size="14.00" fill="gray">\PHPMailer</text>
</g>
<!-- \\MockPHPMailer&#45;&gt;\\PHPMailer -->
<g id="edge10" class="edge"><title>\\MockPHPMailer&#45;&gt;\\PHPMailer</title>
<path fill="none" stroke="black" d="M770.871,-992.68C739.012,-992.59 699.707,-986.475 676,-961 479.195,-749.518 799.708,-527.498 604,-315 584.862,-294.221 554.83,-286.71 527.662,-284.718"/>
<polygon fill="none" stroke="black" points="527.58,-281.21 517.418,-284.209 527.232,-288.201 527.58,-281.21"/>
</g>
<!-- \\WP_Sports_Manager_Create_Roles -->
<g id="node17" class="node"><title>\\WP_Sports_Manager_Create_Roles</title>
<polygon fill="none" stroke="black" points="932.5,-1870 713.5,-1870 713.5,-1834 932.5,-1834 932.5,-1870"/>
<text text-anchor="middle" x="823" y="-1849.2" font-family="Courier,monospace" font-size="11.00">WP_Sports_Manager_Create_Roles</text>
</g>
<!-- \\WP_PHPUnit_Util_Getopt -->
<g id="node18" class="node"><title>\\WP_PHPUnit_Util_Getopt</title>
<polygon fill="none" stroke="black" points="905.5,-844 740.5,-844 740.5,-808 905.5,-808 905.5,-844"/>
<text text-anchor="middle" x="823" y="-823.2" font-family="Courier,monospace" font-size="11.00">WP_PHPUnit_Util_Getopt</text>
</g>
<!-- \\PHPUnit_Util_Getopt -->
<g id="node56" class="node"><title>\\PHPUnit_Util_Getopt</title>
<ellipse fill="none" stroke="black" cx="465" cy="-234" rx="90.9839" ry="18"/>
<text text-anchor="middle" x="465" y="-230.3" font-family="Times,serif" font-size="14.00" fill="gray">\PHPUnit_Util_Getopt</text>
</g>
<!-- \\WP_PHPUnit_Util_Getopt&#45;&gt;\\PHPUnit_Util_Getopt -->
<g id="edge11" class="edge"><title>\\WP_PHPUnit_Util_Getopt&#45;&gt;\\PHPUnit_Util_Getopt</title>
<path fill="none" stroke="black" d="M740.282,-828.281C716.566,-824.77 692.613,-816.462 676,-799 509.718,-624.219 769.376,-436.639 604,-261 593.567,-249.919 580.031,-242.634 565.522,-237.953"/>
<polygon fill="none" stroke="black" points="566.444,-234.577 555.87,-235.239 564.549,-241.315 566.444,-234.577"/>
</g>
<!-- \\WP_Sports_Manager_Create_Menu -->
<g id="node19" class="node"><title>\\WP_Sports_Manager_Create_Menu</title>
<polygon fill="none" stroke="black" points="929,-1762 717,-1762 717,-1726 929,-1726 929,-1762"/>
<text text-anchor="middle" x="823" y="-1741.2" font-family="Courier,monospace" font-size="11.00">WP_Sports_Manager_Create_Menu</text>
</g>
<!-- \\WP_UnitTest_Factory_For_Term -->
<g id="node20" class="node"><title>\\WP_UnitTest_Factory_For_Term</title>
<polygon fill="none" stroke="black" points="568,-2248 362,-2248 362,-2212 568,-2212 568,-2248"/>
<text text-anchor="middle" x="465" y="-2227.2" font-family="Courier,monospace" font-size="11.00">WP_UnitTest_Factory_For_Term</text>
</g>
<!-- \\WP_UnitTest_Factory_For_Term&#45;&gt;\\WP_UnitTest_Factory_For_Thing -->
<g id="edge12" class="edge"><title>\\WP_UnitTest_Factory_For_Term&#45;&gt;\\WP_UnitTest_Factory_For_Thing</title>
<path fill="none" stroke="black" d="M361.672,-2246.36C349.498,-2249.37 337.367,-2252.9 326,-2257 265.987,-2278.65 202.158,-2316.49 163.681,-2341.14"/>
<polygon fill="none" stroke="black" points="161.427,-2338.43 154.931,-2346.8 165.229,-2344.31 161.427,-2338.43"/>
</g>
<!-- \\WP_Test_REST_TestCase -->
<g id="node21" class="node"><title>\\WP_Test_REST_TestCase</title>
<polygon fill="none" stroke="black" points="902,-2032 744,-2032 744,-1996 902,-1996 902,-2032"/>
<text text-anchor="start" x="789" y="-2017.2" font-family="Courier,monospace" font-size="11.00">«abstract»</text>
<text text-anchor="start" x="752" y="-2005.2" font-family="Courier,monospace" font-size="11.00">WP_Test_REST_TestCase</text>
</g>
<!-- \\WP_UnitTestCase -->
<g id="node44" class="node"><title>\\WP_UnitTestCase</title>
<polygon fill="none" stroke="black" points="524,-1870 406,-1870 406,-1834 524,-1834 524,-1870"/>
<text text-anchor="middle" x="465" y="-1849.2" font-family="Courier,monospace" font-size="11.00">WP_UnitTestCase</text>
</g>
<!-- \\WP_Test_REST_TestCase&#45;&gt;\\WP_UnitTestCase -->
<g id="edge13" class="edge"><title>\\WP_Test_REST_TestCase&#45;&gt;\\WP_UnitTestCase</title>
<path fill="none" stroke="black" d="M743.9,-2005.31C721.475,-2001.28 697.33,-1995.45 676,-1987 606.318,-1959.4 534.957,-1907.49 495.979,-1876.71"/>
<polygon fill="none" stroke="black" points="497.705,-1873.6 487.705,-1870.1 493.338,-1879.08 497.705,-1873.6"/>
</g>
<!-- \\WP_UnitTest_Factory_Callback_After_Create -->
<g id="node22" class="node"><title>\\WP_UnitTest_Factory_Callback_After_Create</title>
<polygon fill="none" stroke="black" points="969.5,-1654 676.5,-1654 676.5,-1618 969.5,-1618 969.5,-1654"/>
<text text-anchor="middle" x="823" y="-1633.2" font-family="Courier,monospace" font-size="11.00">WP_UnitTest_Factory_Callback_After_Create</text>
</g>
<!-- \\Spy_REST_Server -->
<g id="node23" class="node"><title>\\Spy_REST_Server</title>
<polygon fill="none" stroke="black" points="882,-790 764,-790 764,-754 882,-754 882,-790"/>
<text text-anchor="middle" x="823" y="-769.2" font-family="Courier,monospace" font-size="11.00">Spy_REST_Server</text>
</g>
<!-- \\WP_REST_Server -->
<g id="node57" class="node"><title>\\WP_REST_Server</title>
<ellipse fill="none" stroke="black" cx="465" cy="-180" rx="79.8859" ry="18"/>
<text text-anchor="middle" x="465" y="-176.3" font-family="Times,serif" font-size="14.00" fill="gray">\WP_REST_Server</text>
</g>
<!-- \\Spy_REST_Server&#45;&gt;\\WP_REST_Server -->
<g id="edge14" class="edge"><title>\\Spy_REST_Server&#45;&gt;\\WP_REST_Server</title>
<path fill="none" stroke="black" d="M763.881,-776.364C733.539,-775.329 698.209,-768.344 676,-745 509.718,-570.219 769.376,-382.639 604,-207 591.091,-193.29 573.432,-185.391 555.058,-181.045"/>
<polygon fill="none" stroke="black" points="555.601,-177.584 545.105,-179.033 554.214,-184.445 555.601,-177.584"/>
</g>
<!-- \\WP_UnitTest_Factory -->
<g id="node24" class="node"><title>\\WP_UnitTest_Factory</title>
<polygon fill="none" stroke="black" points="895.5,-1546 750.5,-1546 750.5,-1510 895.5,-1510 895.5,-1546"/>
<text text-anchor="middle" x="823" y="-1525.2" font-family="Courier,monospace" font-size="11.00">WP_UnitTest_Factory</text>
</g>
<!-- \\WP_UnitTest_Factory_For_User -->
<g id="node26" class="node"><title>\\WP_UnitTest_Factory_For_User</title>
<polygon fill="none" stroke="black" points="568,-2572 362,-2572 362,-2536 568,-2536 568,-2572"/>
<text text-anchor="middle" x="465" y="-2551.2" font-family="Courier,monospace" font-size="11.00">WP_UnitTest_Factory_For_User</text>
</g>
<!-- \\WP_UnitTest_Factory_For_User&#45;&gt;\\WP_UnitTest_Factory_For_Thing -->
<g id="edge15" class="edge"><title>\\WP_UnitTest_Factory_For_User&#45;&gt;\\WP_UnitTest_Factory_For_Thing</title>
<path fill="none" stroke="black" d="M361.924,-2539.98C349.522,-2536.56 337.267,-2532.3 326,-2527 254.067,-2493.18 185.942,-2427.48 151.456,-2390.99"/>
<polygon fill="none" stroke="black" points="153.604,-2388.16 144.222,-2383.24 148.487,-2392.94 153.604,-2388.16"/>
</g>
<!-- \\WP_Image_Editor_Mock -->
<g id="node27" class="node"><title>\\WP_Image_Editor_Mock</title>
<polygon fill="none" stroke="black" points="899,-682 747,-682 747,-646 899,-646 899,-682"/>
<text text-anchor="middle" x="823" y="-661.2" font-family="Courier,monospace" font-size="11.00">WP_Image_Editor_Mock</text>
</g>
<!-- \\WP_Image_Editor -->
<g id="node58" class="node"><title>\\WP_Image_Editor</title>
<ellipse fill="none" stroke="black" cx="465" cy="-126" rx="79.8859" ry="18"/>
<text text-anchor="middle" x="465" y="-122.3" font-family="Times,serif" font-size="14.00" fill="gray">\WP_Image_Editor</text>
</g>
<!-- \\WP_Image_Editor_Mock&#45;&gt;\\WP_Image_Editor -->
<g id="edge16" class="edge"><title>\\WP_Image_Editor_Mock&#45;&gt;\\WP_Image_Editor</title>
<path fill="none" stroke="black" d="M746.889,-666.979C721.149,-664.044 694.262,-655.916 676,-637 524.949,-480.538 754.24,-310.241 604,-153 590.991,-139.385 573.292,-131.523 554.912,-127.184"/>
<polygon fill="none" stroke="black" points="555.453,-123.723 544.958,-125.173 554.067,-130.584 555.453,-123.723"/>
</g>
<!-- \\WP_Sports_Manager_Public -->
<g id="node28" class="node"><title>\\WP_Sports_Manager_Public</title>
<polygon fill="none" stroke="black" points="912.5,-1438 733.5,-1438 733.5,-1402 912.5,-1402 912.5,-1438"/>
<text text-anchor="middle" x="823" y="-1417.2" font-family="Courier,monospace" font-size="11.00">WP_Sports_Manager_Public</text>
</g>
<!-- \\WP_UnitTest_Factory_For_Comment -->
<g id="node29" class="node"><title>\\WP_UnitTest_Factory_For_Comment</title>
<polygon fill="none" stroke="black" points="578,-2518 352,-2518 352,-2482 578,-2482 578,-2518"/>
<text text-anchor="middle" x="465" y="-2497.2" font-family="Courier,monospace" font-size="11.00">WP_UnitTest_Factory_For_Comment</text>
</g>
<!-- \\WP_UnitTest_Factory_For_Comment&#45;&gt;\\WP_UnitTest_Factory_For_Thing -->
<g id="edge17" class="edge"><title>\\WP_UnitTest_Factory_For_Comment&#45;&gt;\\WP_UnitTest_Factory_For_Thing</title>
<path fill="none" stroke="black" d="M355.04,-2481.95C345.112,-2479.33 335.3,-2476.36 326,-2473 265.987,-2451.35 202.158,-2413.51 163.681,-2388.86"/>
<polygon fill="none" stroke="black" points="165.229,-2385.69 154.931,-2383.2 161.427,-2391.57 165.229,-2385.69"/>
</g>
<!-- \\WP_UnitTest_Factory_For_Network -->
<g id="node30" class="node"><title>\\WP_UnitTest_Factory_For_Network</title>
<polygon fill="none" stroke="black" points="578,-2410 352,-2410 352,-2374 578,-2374 578,-2410"/>
<text text-anchor="middle" x="465" y="-2389.2" font-family="Courier,monospace" font-size="11.00">WP_UnitTest_Factory_For_Network</text>
</g>
<!-- \\WP_UnitTest_Factory_For_Network&#45;&gt;\\WP_UnitTest_Factory_For_Thing -->
<g id="edge18" class="edge"><title>\\WP_UnitTest_Factory_For_Network&#45;&gt;\\WP_UnitTest_Factory_For_Thing</title>
<path fill="none" stroke="black" d="M351.65,-2382.97C316.836,-2380.17 278.427,-2377.09 243.409,-2374.27"/>
<polygon fill="none" stroke="black" points="243.393,-2370.76 233.145,-2373.45 242.832,-2377.74 243.393,-2370.76"/>
</g>
<!-- \\WP_Sports_Manager_Create_Custom_Post_type -->
<g id="node31" class="node"><title>\\WP_Sports_Manager_Create_Custom_Post_type</title>
<polygon fill="none" stroke="black" points="969.5,-1384 676.5,-1384 676.5,-1348 969.5,-1348 969.5,-1384"/>
<text text-anchor="middle" x="823" y="-1363.2" font-family="Courier,monospace" font-size="11.00">WP_Sports_Manager_Create_Custom_Post_type</text>
</g>
<!-- \\WP_Sports_Manager_i18n -->
<g id="node32" class="node"><title>\\WP_Sports_Manager_i18n</title>
<polygon fill="none" stroke="black" points="905.5,-1330 740.5,-1330 740.5,-1294 905.5,-1294 905.5,-1330"/>
<text text-anchor="middle" x="823" y="-1309.2" font-family="Courier,monospace" font-size="11.00">WP_Sports_Manager_i18n</text>
</g>
<!-- \\WP_Sports_Manager_Create_Taxonomies -->
<g id="node33" class="node"><title>\\WP_Sports_Manager_Create_Taxonomies</title>
<polygon fill="none" stroke="black" points="949.5,-1276 696.5,-1276 696.5,-1240 949.5,-1240 949.5,-1276"/>
<text text-anchor="middle" x="823" y="-1255.2" font-family="Courier,monospace" font-size="11.00">WP_Sports_Manager_Create_Taxonomies</text>
</g>
<!-- \\MockAction -->
<g id="node34" class="node"><title>\\MockAction</title>
<polygon fill="none" stroke="black" points="865,-1222 781,-1222 781,-1186 865,-1186 865,-1222"/>
<text text-anchor="middle" x="823" y="-1201.2" font-family="Courier,monospace" font-size="11.00">MockAction</text>
</g>
<!-- \\testXMLParser -->
<g id="node35" class="node"><title>\\testXMLParser</title>
<polygon fill="none" stroke="black" points="875,-1168 771,-1168 771,-1132 875,-1132 875,-1168"/>
<text text-anchor="middle" x="823" y="-1147.2" font-family="Courier,monospace" font-size="11.00">testXMLParser</text>
</g>
<!-- \\MockClass -->
<g id="node36" class="node"><title>\\MockClass</title>
<polygon fill="none" stroke="black" points="861.5,-1114 784.5,-1114 784.5,-1078 861.5,-1078 861.5,-1114"/>
<text text-anchor="middle" x="823" y="-1093.2" font-family="Courier,monospace" font-size="11.00">MockClass</text>
</g>
<!-- \\wpdb_exposed_methods_for_testing -->
<g id="node37" class="node"><title>\\wpdb_exposed_methods_for_testing</title>
<polygon fill="none" stroke="black" points="939.5,-574 706.5,-574 706.5,-538 939.5,-538 939.5,-574"/>
<text text-anchor="middle" x="823" y="-553.2" font-family="Courier,monospace" font-size="11.00">wpdb_exposed_methods_for_testing</text>
</g>
<!-- \\wpdb -->
<g id="node59" class="node"><title>\\wpdb</title>
<ellipse fill="none" stroke="black" cx="465" cy="-72" rx="32.4942" ry="18"/>
<text text-anchor="middle" x="465" y="-68.3" font-family="Times,serif" font-size="14.00" fill="gray">\wpdb</text>
</g>
<!-- \\wpdb_exposed_methods_for_testing&#45;&gt;\\wpdb -->
<g id="edge19" class="edge"><title>\\wpdb_exposed_methods_for_testing&#45;&gt;\\wpdb</title>
<path fill="none" stroke="black" d="M706.296,-548.818C695.009,-544.152 684.584,-537.731 676,-529 540.15,-390.826 739.134,-237.875 604,-99 579.221,-73.5345 538.01,-68.298 507.062,-68.5198"/>
<polygon fill="none" stroke="black" points="506.904,-65.0227 496.999,-68.783 507.087,-72.0203 506.904,-65.0227"/>
</g>
<!-- \\SampleTest -->
<g id="node38" class="node"><title>\\SampleTest</title>
<polygon fill="none" stroke="black" points="865,-1978 781,-1978 781,-1942 865,-1942 865,-1978"/>
<text text-anchor="middle" x="823" y="-1957.2" font-family="Courier,monospace" font-size="11.00">SampleTest</text>
</g>
<!-- \\SampleTest&#45;&gt;\\WP_UnitTestCase -->
<g id="edge20" class="edge"><title>\\SampleTest&#45;&gt;\\WP_UnitTestCase</title>
<path fill="none" stroke="black" d="M780.942,-1954.49C751.425,-1950.02 710.851,-1942.85 676,-1933 619.834,-1917.12 557.721,-1892.2 515.72,-1874.19"/>
<polygon fill="none" stroke="black" points="516.851,-1870.87 506.283,-1870.11 514.076,-1877.29 516.851,-1870.87"/>
</g>
<!-- \\WP_Sports_Manager -->
<g id="node39" class="node"><title>\\WP_Sports_Manager</title>
<polygon fill="none" stroke="black" points="888.5,-952 757.5,-952 757.5,-916 888.5,-916 888.5,-952"/>
<text text-anchor="middle" x="823" y="-931.2" font-family="Courier,monospace" font-size="11.00">WP_Sports_Manager</text>
</g>
<!-- \\WPProfiler -->
<g id="node40" class="node"><title>\\WPProfiler</title>
<polygon fill="none" stroke="black" points="865,-898 781,-898 781,-862 865,-862 865,-898"/>
<text text-anchor="middle" x="823" y="-877.2" font-family="Courier,monospace" font-size="11.00">WPProfiler</text>
</g>
<!-- \\WP_Canonical_UnitTestCase -->
<g id="node41" class="node"><title>\\WP_Canonical_UnitTestCase</title>
<polygon fill="none" stroke="black" points="915.5,-1924 730.5,-1924 730.5,-1888 915.5,-1888 915.5,-1924"/>
<text text-anchor="middle" x="823" y="-1903.2" font-family="Courier,monospace" font-size="11.00">WP_Canonical_UnitTestCase</text>
</g>
<!-- \\WP_Canonical_UnitTestCase&#45;&gt;\\WP_UnitTestCase -->
<g id="edge21" class="edge"><title>\\WP_Canonical_UnitTestCase&#45;&gt;\\WP_UnitTestCase</title>
<path fill="none" stroke="black" d="M730.321,-1892.09C669.132,-1882.81 589.985,-1870.81 534.307,-1862.36"/>
<polygon fill="none" stroke="black" points="534.605,-1858.87 524.193,-1860.83 533.555,-1865.79 534.605,-1858.87"/>
</g>
<!-- \\Basic_Object -->
<g id="node42" class="node"><title>\\Basic_Object</title>
<polygon fill="none" stroke="black" points="514,-1600 416,-1600 416,-1564 514,-1564 514,-1600"/>
<text text-anchor="middle" x="465" y="-1579.2" font-family="Courier,monospace" font-size="11.00">Basic_Object</text>
</g>
<!-- \\Basic_Subclass -->
<g id="node43" class="node"><title>\\Basic_Subclass</title>
<polygon fill="none" stroke="black" points="878.5,-1600 767.5,-1600 767.5,-1564 878.5,-1564 878.5,-1600"/>
<text text-anchor="middle" x="823" y="-1579.2" font-family="Courier,monospace" font-size="11.00">Basic_Subclass</text>
</g>
<!-- \\Basic_Subclass&#45;&gt;\\Basic_Object -->
<g id="edge22" class="edge"><title>\\Basic_Subclass&#45;&gt;\\Basic_Object</title>
<path fill="none" stroke="black" d="M767.155,-1582C701.297,-1582 591.32,-1582 524.062,-1582"/>
<polygon fill="none" stroke="black" points="524.054,-1578.5 514.054,-1582 524.054,-1585.5 524.054,-1578.5"/>
</g>
<!-- \\PHPUnit_Framework_TestCase -->
<g id="node60" class="node"><title>\\PHPUnit_Framework_TestCase</title>
<ellipse fill="none" stroke="black" cx="127" cy="-342" rx="126.978" ry="18"/>
<text text-anchor="middle" x="127" y="-338.3" font-family="Times,serif" font-size="14.00" fill="gray">\PHPUnit_Framework_TestCase</text>
</g>
<!-- \\WP_UnitTestCase&#45;&gt;\\PHPUnit_Framework_TestCase -->
<g id="edge23" class="edge"><title>\\WP_UnitTestCase&#45;&gt;\\PHPUnit_Framework_TestCase</title>
<path fill="none" stroke="black" d="M449.703,-1833.83C420.202,-1795.15 353.077,-1700.66 326,-1609 286.901,-1476.64 343.839,-473.765 254,-369 250.177,-364.542 245.814,-360.715 241.06,-357.435"/>
<polygon fill="none" stroke="black" points="242.498,-354.217 232.116,-352.106 238.915,-360.231 242.498,-354.217"/>
</g>
<!-- \\WP_UnitTest_Factory_For_Blog -->
<g id="node45" class="node"><title>\\WP_UnitTest_Factory_For_Blog</title>
<polygon fill="none" stroke="black" points="568,-2356 362,-2356 362,-2320 568,-2320 568,-2356"/>
<text text-anchor="middle" x="465" y="-2335.2" font-family="Courier,monospace" font-size="11.00">WP_UnitTest_Factory_For_Blog</text>
</g>
<!-- \\WP_UnitTest_Factory_For_Blog&#45;&gt;\\WP_UnitTest_Factory_For_Thing -->
<g id="edge24" class="edge"><title>\\WP_UnitTest_Factory_For_Blog&#45;&gt;\\WP_UnitTest_Factory_For_Thing</title>
<path fill="none" stroke="black" d="M361.82,-2346.21C324.424,-2349.22 281.859,-2352.64 243.388,-2355.73"/>
<polygon fill="none" stroke="black" points="242.867,-2352.26 233.179,-2356.55 243.428,-2359.24 242.867,-2352.26"/>
</g>
<!-- \\WP_Sports_Manager_Deactivator -->
<g id="node46" class="node"><title>\\WP_Sports_Manager_Deactivator</title>
<polygon fill="none" stroke="black" points="929,-736 717,-736 717,-700 929,-700 929,-736"/>
<text text-anchor="middle" x="823" y="-715.2" font-family="Courier,monospace" font-size="11.00">WP_Sports_Manager_Deactivator</text>
</g>
<!-- \\WP_XMLRPC_UnitTestCase -->
<g id="node47" class="node"><title>\\WP_XMLRPC_UnitTestCase</title>
<polygon fill="none" stroke="black" points="905.5,-1816 740.5,-1816 740.5,-1780 905.5,-1780 905.5,-1816"/>
<text text-anchor="middle" x="823" y="-1795.2" font-family="Courier,monospace" font-size="11.00">WP_XMLRPC_UnitTestCase</text>
</g>
<!-- \\WP_XMLRPC_UnitTestCase&#45;&gt;\\WP_UnitTestCase -->
<g id="edge25" class="edge"><title>\\WP_XMLRPC_UnitTestCase&#45;&gt;\\WP_UnitTestCase</title>
<path fill="none" stroke="black" d="M740.326,-1810.39C677.938,-1819.85 592.957,-1832.74 534.188,-1841.66"/>
<polygon fill="none" stroke="black" points="533.623,-1838.2 524.261,-1843.16 534.673,-1845.12 533.623,-1838.2"/>
</g>
<!-- \\TracTickets -->
<g id="node48" class="node"><title>\\TracTickets</title>
<polygon fill="none" stroke="black" points="868.5,-628 777.5,-628 777.5,-592 868.5,-592 868.5,-628"/>
<text text-anchor="middle" x="823" y="-607.2" font-family="Courier,monospace" font-size="11.00">TracTickets</text>
</g>
<!-- \\WP_Ajax_UnitTestCase -->
<g id="node49" class="node"><title>\\WP_Ajax_UnitTestCase</title>
<polygon fill="none" stroke="black" points="899,-1708 747,-1708 747,-1672 899,-1672 899,-1708"/>
<text text-anchor="start" x="789" y="-1693.2" font-family="Courier,monospace" font-size="11.00">«abstract»</text>
<text text-anchor="start" x="755" y="-1681.2" font-family="Courier,monospace" font-size="11.00">WP_Ajax_UnitTestCase</text>
</g>
<!-- \\WP_Ajax_UnitTestCase&#45;&gt;\\WP_UnitTestCase -->
<g id="edge26" class="edge"><title>\\WP_Ajax_UnitTestCase&#45;&gt;\\WP_UnitTestCase</title>
<path fill="none" stroke="black" d="M746.912,-1698.16C723.651,-1702.2 698.288,-1708.17 676,-1717 606.318,-1744.6 534.957,-1796.51 495.979,-1827.29"/>
<polygon fill="none" stroke="black" points="493.338,-1824.92 487.705,-1833.9 497.705,-1830.4 493.338,-1824.92"/>
</g>
<!-- \\SpeedTrapListener -->
<g id="node50" class="node"><title>\\SpeedTrapListener</title>
<polygon fill="none" stroke="black" points="888.5,-520 757.5,-520 757.5,-484 888.5,-484 888.5,-520"/>
<text text-anchor="middle" x="823" y="-499.2" font-family="Courier,monospace" font-size="11.00">SpeedTrapListener</text>
</g>
<!-- \\PHPUnit_Framework_TestListener -->
<g id="node61" class="node"><title>\\PHPUnit_Framework_TestListener</title>
<ellipse fill="none" stroke="black" cx="465" cy="-18" rx="138.375" ry="18"/>
<text text-anchor="middle" x="465" y="-14.3" font-family="Times,serif" font-size="14.00" fill="gray">\PHPUnit_Framework_TestListener</text>
</g>
<!-- \\SpeedTrapListener&#45;&gt;\\PHPUnit_Framework_TestListener -->
<g id="edge27" class="edge"><title>\\SpeedTrapListener&#45;&gt;\\PHPUnit_Framework_TestListener</title>
<path fill="none" stroke="black" stroke-dasharray="1,5" d="M757.202,-505.713C728.631,-503.799 696.873,-496.23 676,-475 540.15,-336.826 739.134,-183.875 604,-45 599.475,-40.3498 594.402,-36.3741 588.944,-32.9831"/>
<polygon fill="none" stroke="black" points="590.525,-29.8583 580.073,-28.1226 587.161,-35.9972 590.525,-29.8583"/>
</g>
<!-- \\WP_Sports_Manager_Activator -->
<g id="node51" class="node"><title>\\WP_Sports_Manager_Activator</title>
<polygon fill="none" stroke="black" points="922.5,-466 723.5,-466 723.5,-430 922.5,-430 922.5,-466"/>
<text text-anchor="middle" x="823" y="-445.2" font-family="Courier,monospace" font-size="11.00">WP_Sports_Manager_Activator</text>
</g>
</g>
</svg>
