<?xml version="1.0" encoding="UTF-8" standalone="no"?>
<svg width="80px" height="80px" viewBox="0 0 80 80" version="1.1" xmlns="http://www.w3.org/2000/svg" xmlns:xlink="http://www.w3.org/1999/xlink">
    <!-- Generator: Sketch 3.7.2 (28276) - http://www.bohemiancoding.com/sketch -->
    <title>80 - Spotlight Copy</title>
    <desc>Created with Sketch.</desc>
    <defs></defs>
    <g id="Page-1" stroke="none" stroke-width="1" fill="none" fill-rule="evenodd">
        <g id="80---Spotlight-Copy" fill="#D8D8D8">
            <path d="M11,10 L36,10 L36,69 L23.5,59 L11,69 L11,10 Z M27,53 L22.3263403,53 L22.3263403,43.4705882 C22.3263403,42.3132637 22.3496501,41.2544508 22.3962704,40.2941176 C22.1087787,40.6634765 21.7513619,41.0492456 21.3240093,41.4514364 L19.3892774,43.1381669 L17,40.0355677 L22.8508159,35 L27,35 L27,53 Z" id="Combined-Shape"></path>
            <path d="M43,10 L68,10 L68,69 L55.5,59 L43,69 L43,10 Z M61.6962891,53 L48.7446289,53 L48.7446289,49.8261719 L53.1025391,45.4194336 C54.3476625,44.1173438 55.1614564,43.2282739 55.5439453,42.7521973 C55.9264342,42.2761207 56.1929517,41.8671892 56.3435059,41.5253906 C56.49406,41.183592 56.5693359,40.8255227 56.5693359,40.4511719 C56.5693359,39.9873024 56.4187841,39.6210951 56.1176758,39.3525391 C55.8165675,39.083983 55.3933947,38.949707 54.8481445,38.949707 C54.2866183,38.949707 53.718997,39.1104313 53.1452637,39.4318848 C52.5715303,39.7533382 51.9225297,40.2273732 51.1982422,40.8540039 L48.5493164,37.753418 C49.4689174,36.9314738 50.2420216,36.3435076 50.8686523,35.989502 C51.4952831,35.6354963 52.1768355,35.3649098 52.9133301,35.1777344 C53.6498246,34.990559 54.47786,34.8969727 55.3974609,34.8969727 C56.5530657,34.8969727 57.5845495,35.1004211 58.4919434,35.5073242 C59.3993372,35.9142273 60.103269,36.4940555 60.6037598,37.2468262 C61.1042505,37.9995969 61.3544922,38.8439081 61.3544922,39.7797852 C61.3544922,40.4796584 61.2670093,41.1266246 61.092041,41.7207031 C60.9170727,42.3147816 60.6464862,42.8986788 60.2802734,43.4724121 C59.9140607,44.0461454 59.4278188,44.6503875 58.8215332,45.2851562 C58.2152476,45.919925 56.9233497,47.1243401 54.9458008,48.8984375 L54.9458008,49.0205078 L61.6962891,49.0205078 L61.6962891,53 Z" id="Combined-Shape"></path>
        </g>
    </g>
</svg>