<?xml version="1.0" encoding="UTF-8" standalone="no"?>
<svg width="72px" height="72px" viewBox="0 0 72 72" version="1.1" xmlns="http://www.w3.org/2000/svg" xmlns:xlink="http://www.w3.org/1999/xlink">
    <!-- Generator: Sketch 3.7.2 (28276) - http://www.bohemiancoding.com/sketch -->
    <title>original</title>
    <desc>Created with Sketch.</desc>
    <defs></defs>
    <g id="Page-1" stroke="none" stroke-width="1" fill="none" fill-rule="evenodd">
        <g id="Artboard-1" transform="translate(-189.000000, -135.000000)" fill="#FFFFFF">
            <g id="original" transform="translate(189.000000, 135.000000)">
                <path d="M36,72 C55.882251,72 72,55.882251 72,36 C72,16.117749 55.882251,0 36,0 C16.117749,0 0,16.117749 0,36 C0,55.882251 16.117749,72 36,72 Z M41.8378906,56 L31.2646484,56 L31.2646484,35.5917969 C31.2646484,33.1132689 31.3173823,30.8457134 31.4228516,28.7890625 C30.7724577,29.5800821 29.963872,30.4062457 28.9970703,31.2675781 L24.6201172,34.8798828 L19.2148438,28.2353516 L32.4511719,17.4511719 L41.8378906,17.4511719 L41.8378906,56 Z" id="Combined-Shape"></path>
            </g>
        </g>
    </g>
</svg>